<svg xmlns="http://www.w3.org/2000/svg" viewBox="0 0 21.7 18.31"><defs><style>.cls-1{fill:#fff;}.cls-2{fill:none;}</style></defs><title>icon-forward</title><g id="图层_2" data-name="图层 2"><g id="图层_1-2" data-name="图层 1"><path class="cls-1" d="M19.4,18.28H2.28A2.28,2.28,0,0,1,0,16V2.3A2.29,2.29,0,0,1,2.28,0H8.56a.58.58,0,0,1,.57.57.57.57,0,0,1-.57.57H2.28A1.15,1.15,0,0,0,1.14,2.3V16a1.14,1.14,0,0,0,1.14,1.14H19.4A1.14,1.14,0,0,0,20.54,16V13.14a.57.57,0,0,1,.57-.57.58.58,0,0,1,.57.57V16a2.28,2.28,0,0,1-2.28,2.28Zm1.71-9.13a.57.57,0,0,1-.57-.57V2L9,13.55a.57.57,0,0,1-.4.16.57.57,0,0,1-.41-.16.58.58,0,0,1,0-.81L19.73,1.16H13.12a.57.57,0,0,1-.57-.57A.58.58,0,0,1,13.12,0h8a.59.59,0,0,1,.31.12.3.3,0,0,1,.08.08.55.55,0,0,1,.14.37v8a.58.58,0,0,1-.57.57Z"/><rect class="cls-2" width="21.7" height="18.31"/></g></g></svg>