<svg xmlns="http://www.w3.org/2000/svg" viewBox="0 0 23.66 22.65"><defs><style>.cls-1{fill:none;}.cls-2{fill:#fff;}</style></defs><title>icon-like</title><g id="图层_2" data-name="图层 2"><g id="图层_1-2" data-name="图层 1"><path class="cls-1" d="M0,0V9.78A1.46,1.46,0,0,1,1.48,8.37H6c2.23,0,3.7-3.75,4.5-5.75A5.51,5.51,0,0,1,11.43.75a2.2,2.2,0,0,1,3.29,0c1.27,1.21,0,6-.82,7.43,0,.06.15.2.39.2h7.12a2.32,2.32,0,0,1,1.71.75,2,2,0,0,1,.49,1.73l-1.73,10a2.19,2.19,0,0,1-2.21,1.78H16a.7.7,0,1,1,0-1.4h3.65a.75.75,0,0,0,.75-.61l1.75-10A.72.72,0,0,0,22,10a.77.77,0,0,0-.58-.26H14.3a2,2,0,0,1-1.67-.87,1.34,1.34,0,0,1,0-1.43C13.52,6,14.1,2.3,13.67,1.73a1,1,0,0,0-.59-.32,1,1,0,0,0-.6.33,11.71,11.71,0,0,0-.6,1.38c-.9,2.3-2.38,6-5.17,6.58V21.21H12.1a.7.7,0,1,1,0,1.4H1.48A1.45,1.45,0,0,1,0,21.21v1.44H23.66V0Z"/><path class="cls-2" d="M6,22.61H12.1a.7.7,0,1,0,0-1.4H6.71v.7A.71.71,0,0,1,6,22.61Z"/><path class="cls-2" d="M1.48,22.61H6a.7.7,0,1,1,0-1.4h.73V9.7A3.57,3.57,0,0,1,6,9.79.71.71,0,1,1,6,8.38H1.48A1.46,1.46,0,0,0,0,9.78V21.21A1.45,1.45,0,0,0,1.48,22.61Zm0-12.83H5.23V21.21H1.48Z"/><path class="cls-2" d="M5.24,21.91a.72.72,0,0,0,.74.7.71.71,0,0,0,.73-.7v-.7H6A.72.72,0,0,0,5.24,21.91Z"/><path class="cls-2" d="M6.71,9.08V9.7C9.5,9.13,11,5.42,11.88,3.12a11.71,11.71,0,0,1,.6-1.38,1,1,0,0,1,.6-.33,1,1,0,0,1,.59.32c.43.57-.15,4.23-1.05,5.75a1.34,1.34,0,0,0,0,1.43,2,2,0,0,0,1.67.87h7.12A.77.77,0,0,1,22,10a.72.72,0,0,1,.17.58l-1.75,10a.75.75,0,0,1-.75.61H16a.7.7,0,1,0,0,1.4h3.65a2.19,2.19,0,0,0,2.21-1.78l1.73-10a2,2,0,0,0-.49-1.73,2.32,2.32,0,0,0-1.71-.75H14.29c-.24,0-.39-.14-.39-.2C14.77,6.7,16,2,14.72.75a2.2,2.2,0,0,0-3.29,0,5.51,5.51,0,0,0-.93,1.88c-.8,2-2.27,5.72-4.5,5.75A.72.72,0,0,1,6.71,9.08Z"/><path class="cls-2" d="M5.23,9.09a.72.72,0,0,0,.74.7,3.57,3.57,0,0,0,.74-.09V9.08A.72.72,0,0,0,6,8.38H6A.73.73,0,0,0,5.23,9.09Z"/></g></g></svg>