<svg xmlns="http://www.w3.org/2000/svg" viewBox="0 0 21.82 21.31"><defs><style>.cls-1{fill:#fff;}</style></defs><title>icon-comment</title><g id="图层_2" data-name="图层 2"><g id="图层_1-2" data-name="图层 1"><path class="cls-1" d="M20.1,17.8a1.55,1.55,0,0,0,1.72-1.5V1.72A1.72,1.72,0,0,0,20.1,0H1.72A1.72,1.72,0,0,0,0,1.72V16.3a1.55,1.55,0,0,0,1.72,1.5H7.14l3,3.17a1.19,1.19,0,0,0,.82.34,1.17,1.17,0,0,0,.81-.34l2.95-3.17Zm-5.9-1.14H14l-3.12,3.49L7.8,16.66H1.72c-.31,0-.57-.05-.57-.36V1.72a.54.54,0,0,1,.17-.4.54.54,0,0,1,.4-.17H20.1a.58.58,0,0,1,.58.57V16.3c0,.31-.26.36-.58.36ZM6.32,10.34a1.15,1.15,0,0,0,0-2.3,1.15,1.15,0,0,0,0,2.3Zm4.59,0a1.16,1.16,0,0,0,1-.58,1.15,1.15,0,0,0-1-1.72,1.15,1.15,0,0,0,0,2.3Zm4.6,0a1.15,1.15,0,0,0,0-2.3,1.15,1.15,0,0,0,0,2.3Z"/></g></g></svg>