<svg xmlns="http://www.w3.org/2000/svg" viewBox="0 0 642.33 621.61"><defs><style>.cls-1{fill:none;stroke:#fff;stroke-linecap:round;stroke-linejoin:round;stroke-width:2.8px;}</style></defs><title>title-text</title><g id="图层_2" data-name="图层 2"><g id="图层_1-2" data-name="图层 1"><path class="cls-1" d="M9.23,65.52q20.9,6.86,32.2,14.68,5.22,2,3.48,8.8a125.11,125.11,0,0,1-8.7,20.55q-4.37,6.86-8.7,1A313.35,313.35,0,0,0,1.4,76.28ZM1.4,150.63q26.12,3.93,27.85-5.87,12.18-21.49,26.11-62.61L69.28,87q-2.61,9.79-8.7,29.35-7.83,27.4-11.31,39.14-7.85,21.53-1.75,65.54c1.16,6.51-.87,10.11-6.09,10.76q-6.09,1.95-20,2-8.72,0-7-9.78.86-5.88,3.49-24.46c1.74-8.47,2.61-13.7,2.61-15.65q4.34-16.64-18.28-18.59Zm20-137.94a242.11,242.11,0,0,1,32.2,12.72c3.48,1.32,4.63,4.25,3.48,8.81a18.37,18.37,0,0,1-.87,3.91q-4.36,12.72-7,16.63-4.37,6.85-8.71,1a264.92,264.92,0,0,0-27-31.31ZM73.63,133h27.85q3.47,76.32-41.77,104.68L48.39,226.94Q75.36,198.58,73.63,133ZM68.41,93.89q12.18-1,16.53-7.82a88.29,88.29,0,0,0,14.8-26.42H66.67L62.32,38.13h61.79a46.68,46.68,0,0,0-3.48-5.87q-8.72-13.69-13.06-19.57l8.7-7.82q18.29,5.86,27.85,13.69,2.61,2,1.74,6.85a48.51,48.51,0,0,1-6.09,12.72h33.07l8.7-11.74,22.63,20.54-7.83,12.72H135.42A180.12,180.12,0,0,1,106.7,94.87q15.67,0,49.61-2A16.24,16.24,0,0,0,153.7,89q-1.75-4.87-7-11.74l10.45-8.8q24.34,15.66,35.68,28.37c2.89,2,3.18,5.23.87,9.78q-5.22,8.81-13.06,19.57c-3.48,3.91-6.09,3.27-7.83-2q-2.61-5.86-6.09-12.72-64.41,12.73-92.25,13.7ZM110.18,133h26.11V234.77H110.18Zm35.68-1h27.85v66.52q0,5.87,6.09,5.87,7.83,2,9.58-24.46l11.31,2q-.87,19.58,8.7,22.5Q205,235.75,185.9,233.79H168.49q-22.63,0-22.63-27.39Z"/><path class="cls-1" d="M513.87,121.73A270.94,270.94,0,0,1,545.2,155q5.22,4.9.87,9.79a88.44,88.44,0,0,1-17.4,19.56q-5.24,4.91-7-2a18.37,18.37,0,0,0-.87-4.9c-.58-2.59-1.17-4.23-1.74-4.89q-45.25,20.55-71.36,27.4l-9.57-38.16a27.34,27.34,0,0,0,19.14-14.67q7.84-15.64,13.93-44H443.38L439,80.64h76.58l8.7-10.76,23.5,21.52-7,11.74H492.11L507.78,108q-19.15,33.27-32.2,49.9l36.55-5.87a248.43,248.43,0,0,0-9.57-25.44ZM448.6,25.86h59.18l7.83-8.81L537.37,37.6l-5.22,10.76H453Zm88.77,30.32h21.75V1.4h29.59V56.18h13.93l9.57-11.74L640.93,68.9l-6.09,6.85q-1.76,84.15-4.35,121.31,2.61,27.38-38.3,28.37,0-16.65-18.27-19.56l-1.74-13.7h10.44a101.59,101.59,0,0,0,11.31,1q6.09,0,7-10.76,2.61-34.24,4.35-103.7H588.71v1q.85,93.93-54.82,151.64l-14.8-8.8q41.77-53.79,40-140.88V78.69H540Z"/><path class="cls-1" d="M11.24,593.41Q28.64,575.8,41.7,565V493.62H16.47l-4.36-22.5H41.7l6.09-13.7L80,477l-8.7,13.69V567q12.18,13.71,39.16,13.7,28.72,1,103.56-1A104,104,0,0,0,204.44,614q-70.49,0-89.64-1-32.2,1-49.6-22.5-8.72-11.75-15.66-1c-1.17,2-2.91,4.56-5.23,7.83Q39.94,604.15,33,616.88ZM36.48,397.74q19.14,10.78,29.59,22.51c4.05,3.91,4.35,8.16.87,12.71q-7,11.75-13,17.61-7,7.85-10.45-1.95A208.6,208.6,0,0,0,24.3,406.55Zm76.58-8.8h29.59v49.89h21.76l4.35-10.76L201,446.66l-7,13.7v30.32q.85,30.35,0,52.83.85,27.4-38.29,28.37,0-15.63-16.54-14.67l-1.74-16.63q27.84,4.9,27.85-9.79.85-11.73,0-42.06V462.31h-23.5Q140,538.61,91.31,573.84L77.38,563.08q31.34-33.26,34.81-100.77H81.74l-2.62-23.48h33.94V388.94Z"/><path class="cls-1" d="M452.16,607.5q40.89-21.54,40-60.66V540a211.68,211.68,0,0,1-54.82,28.37l-8.71-13.69q44.38-23.48,70.49-54.79H487.84v4.89H458.25V390.31h29.59v4.89h90.51l10.44-11.74L619.25,405l-9.57,11.74v88H580.09v-4.89H560.94q30.45,22.51,78.33,29.35-10.46,14.68-19.15,39.13a310.07,310.07,0,0,1-40-23.48v72.4H550.5v-91h7Q547,515.55,535.7,502.82a294.11,294.11,0,0,1-25.23,23.48h11.31v20.54q0,57.74-60,73.37Zm35.68-190.77v20.54H518.3V416.73Zm0,41.09v20.54H518.3V457.82Zm60.05-41.09v20.54h32.2V416.73Zm0,41.09v20.54h32.2V457.82Z"/></g></g></svg>